<svg width="1145" height="201" viewBox="0 0 1145 201" fill="none" xmlns="http://www.w3.org/2000/svg">
<path d="M222 0.450439L300.07 197.45H369.157L408 59.6742L384 0.450439H340.968L364.762 59.6742L335.043 171L263 0.450439H222Z" fill="white"/>
<path fill-rule="evenodd" clip-rule="evenodd" d="M57.4869 0H139.562L195 58.8622V138.104L139.558 196H57.491L0 138.113V58.8533L57.4869 0ZM58.1931 1.68447L1.68 59.5408V137.418L58.189 194.316H138.842L193.32 137.427V59.5319L138.838 1.68447H58.1931Z" fill="white"/>
<path fill-rule="evenodd" clip-rule="evenodd" d="M87.0271 72H108.502L123 87.319V107.929L108.498 123H87.0312L72 107.938V87.3103L87.0271 72ZM87.7318 73.6528L73.6682 87.9814V107.259L87.7278 121.347H107.784L121.332 107.268V87.9727L107.78 73.6528H87.7318Z" fill="white"/>
<path d="M6 133L68 108.018V85.9097L24.639 69L6 75.9107L6 94.9302L24.639 87.3163L51.6984 96.8261L6 114.194L6 133Z" fill="white"/>
<path d="M57.7256 188.449L84.442 126.655L68.9212 111.135L26.0992 130.214L17.6465 148.37L30.999 161.722L38.958 143.073L64.9491 130.434L44.5233 175.247L57.7256 188.449Z" fill="white"/>
<path d="M7.01953 57.3237L68.8132 84.0401L84.3339 68.5194L65.2545 25.6974L47.0987 17.2446L33.7461 30.5972L52.3957 38.5562L65.0342 64.5472L20.2218 44.1214L7.01953 57.3237Z" fill="white"/>
<path d="M62 4L86.9823 67H109.09L126 22.9396L119.089 4H100.07L107.684 22.9396L98.1739 50.4355L80.8055 4H62Z" fill="white"/>
<path d="M191 62L128 86.592V108.355L172.06 125L191 118.197V99.4749L172.06 106.97L144.565 97.6087L191 80.5117V62Z" fill="white"/>
<path d="M137.831 6.37695L111.115 68.1706L126.635 83.6914L169.457 64.612L177.91 46.4561L164.558 33.1035L156.599 51.7532L130.608 64.3917L151.033 19.5792L137.831 6.37695Z" fill="white"/>
<path d="M188.776 137.743L126.983 111.027L111.462 126.548L130.541 169.37L148.697 177.822L162.05 164.47L143.4 156.511L130.762 130.52L175.574 150.945L188.776 137.743Z" fill="white"/>
<path d="M133 190L108.408 128H86.6455L70 171.361L76.8027 190H95.5251L88.0301 171.361L97.3913 144.302L114.488 190H133Z" fill="white"/>
<path d="M998.23 195.005V5.34253H1059.14C1097.6 5.34253 1134.47 21.9046 1134.47 66.2483C1134.47 88.153 1121.38 108.722 1101.88 118.873L1144.89 195.005H1101.08L1067.15 129.291C1063.68 129.558 1060.2 129.558 1056.2 129.558C1050.59 129.558 1044.18 129.024 1037.5 127.955V195.005H998.23ZM1037.5 39.001V94.8313C1044.18 95.8998 1051.39 96.4341 1058.33 96.4341C1077.03 96.4341 1094.13 88.6873 1094.13 67.584C1094.13 46.4806 1077.03 39.001 1058.33 39.001H1037.5Z" fill="white"/>
<path d="M783.49 195.005L858.821 5.34253H901.028L976.626 195.005H935.755L920.261 153.333H838.252L822.758 195.005H783.49ZM879.123 44.0765L850.807 119.674H907.706L879.123 44.0765Z" fill="white"/>
<path d="M651.274 195.005V5.34253H691.077V159.744H768.545V195.005H651.274Z" fill="white"/>
<path d="M524.037 200.348C467.672 200.348 426 157.607 426 100.441C426 44.3437 466.604 0 524.571 0C581.203 0 622.608 42.4738 622.608 99.9068C622.608 156.004 582.004 200.348 524.037 200.348ZM467.138 100.174C467.138 133.298 488.241 163.751 524.304 163.751C559.832 163.751 581.47 134.634 581.47 100.174C581.47 66.5155 560.634 36.5969 524.304 36.5969C488.776 36.5969 467.138 65.7141 467.138 100.174Z" fill="white"/>
</svg>
