<svg width="813" height="815" viewBox="0 0 813 815" fill="none" xmlns="http://www.w3.org/2000/svg">
<path d="M580.5 4H241.5L4 246.5V573L241.5 811.5H580.5L809.5 573V246.5L580.5 4Z" stroke="white" stroke-width="7"/>
<path d="M454.151 302H367.034L306 364.765V449.271L367.034 511H454.151L513 449.271V364.765L454.151 302Z" stroke="white" stroke-width="7"/>
<path d="M24.5 555.388L284.583 452.315V361.101L102.688 291.334L24.5 319.846L24.5 398.318L102.688 366.904L216.2 406.14L24.5 477.799L24.5 555.388Z" fill="white"/>
<path d="M242.215 783.621L353.238 526.831L288.74 462.333L110.788 541.619L75.6615 617.068L131.15 672.556L164.224 595.055L272.233 542.535L187.351 728.758L242.215 783.621Z" fill="white"/>
<path d="M31.5 238.715L288.291 349.738L352.789 285.239L273.502 107.288L198.053 72.1613L142.565 127.649L220.066 160.724L272.587 268.733L86.3636 183.851L31.5 238.715Z" fill="white"/>
<path d="M259.76 21L362.833 281.083H454.047L523.814 99.1885L495.302 21H416.83L448.244 99.1885L409.008 212.7L337.349 21H259.76Z" fill="white"/>
<path d="M791.812 256.233L531.729 359.306V450.521L713.624 520.287L791.812 491.775V413.303L713.624 444.717L600.113 405.481L791.812 333.822V256.233Z" fill="white"/>
<path d="M575.098 27L464.075 283.791L528.573 348.289L706.525 269.002L741.651 193.553L686.163 138.065L653.088 215.566L545.08 268.087L629.961 81.8636L575.098 27Z" fill="white"/>
<path d="M786.812 572.907L530.022 461.884L465.524 526.382L544.81 704.334L620.259 739.46L675.747 683.972L598.247 650.897L545.726 542.889L731.949 627.77L786.812 572.907Z" fill="white"/>
<path d="M557.553 791.621L454.479 531.538H363.265L293.498 713.433L322.011 791.621H400.483L369.069 713.433L408.305 599.921L479.964 791.621H557.553Z" fill="white"/>
</svg>
